# xmcd CD database file
#
# Track frame offsets:
#	150
#	18867
#	31422
#	46252
#	52169
#	70336
#	79102
#	87857
#	97535
#	121978
#	144359
#
# Disc length: 2157 seconds
#
# Revision: 0
# Processed by: cddbd v1.5.1PL0 Copyright (c) Steve Scherf et al.
# Submitted via: CDex 1.51
#
DISCID=82086b0b
DTITLE=Various Artist - Blue Note Blend 2
DYEAR=1996
DGENRE=Jazz
TTITLE0=Art Blakey: Monologue
TTITLE1=Bud Powell Duid Deed
TTITLE2=Dizzy Gillespie: Man From Monterey
TTITLE3=Nat King Cole: Just For The Fun Of It
TTITLE4=Cannonball Adderly: One For Daddy O
TTITLE5=Nancy Wilson: Lush Life
TTITLE6=Jay Jay Johnson:Coffee Pot
TTITLE7=Chet Baker: But Not For Me
TTITLE8=Art Blakey: Dat Dere
TTITLE9=Holly Cole: Little Boy Blue
TTITLE10=Charlie Hunter Trio: Wornell;s Yorkies
EXTD=YEAR: 1996
EXTT0=
EXTT1=
EXTT2=
EXTT3=
EXTT4=
EXTT5=
EXTT6=
EXTT7=
EXTT8=
EXTT9=
EXTT10=
PLAYORDER=
